<svg fill="none" width="18" height="10" viewBox="0 0 18 10"  xmlns="http://www.w3.org/2000/svg">
<path d="M16.4697 9.53033C16.7626 9.82322 17.2374 9.82322 17.5303 9.53033C17.8232 9.23744 17.8232 8.76256 17.5303 8.46967L16.4697 9.53033ZM9 1L9.53033 0.46967C9.23744 0.176777 8.76256 0.176777 8.46967 0.46967L9 1ZM0.46967 8.46967C0.176777 8.76256 0.176777 9.23744 0.46967 9.53033C0.762563 9.82322 1.23744 9.82322 1.53033 9.53033L0.46967 8.46967ZM17.5303 8.46967L9.53033 0.46967L8.46967 1.53033L16.4697 9.53033L17.5303 8.46967ZM8.46967 0.46967L0.46967 8.46967L1.53033 9.53033L9.53033 1.53033L8.46967 0.46967Z"/>
</svg>
