<svg width="545" height="554" viewBox="0 0 545 554" fill="none" xmlns="http://www.w3.org/2000/svg">
<path d="M486.985 507.238C486.894 507.238 486.804 507.213 486.726 507.166L452.304 486.328C452.209 486.27 452.136 486.183 452.096 486.079C452.056 485.975 452.052 485.86 452.085 485.754L462.675 451.254C462.693 451.191 462.724 451.132 462.766 451.081C462.808 451.03 462.859 450.988 462.917 450.957C462.975 450.926 463.039 450.907 463.105 450.901C463.17 450.896 463.236 450.903 463.299 450.923C463.426 450.962 463.531 451.05 463.593 451.167C463.656 451.284 463.669 451.42 463.63 451.547L453.155 485.677L486.784 506.034L501.821 476.561L487.672 463.679L472.678 476.558L475.742 481.87H483.652C483.785 481.87 483.912 481.923 484.006 482.017C484.099 482.11 484.152 482.237 484.152 482.37C484.152 482.503 484.099 482.63 484.006 482.724C483.912 482.817 483.785 482.87 483.652 482.87H475.452C475.364 482.87 475.278 482.847 475.203 482.803C475.127 482.759 475.064 482.696 475.02 482.62L471.603 476.699C471.545 476.598 471.524 476.48 471.543 476.365C471.563 476.25 471.622 476.146 471.71 476.07L487.354 462.633C487.447 462.553 487.565 462.51 487.688 462.511C487.81 462.513 487.928 462.56 488.018 462.642L502.776 476.079C502.858 476.153 502.913 476.252 502.933 476.361C502.952 476.469 502.935 476.581 502.885 476.679L487.434 506.969C487.402 507.03 487.359 507.084 487.306 507.127C487.252 507.171 487.191 507.203 487.125 507.221C487.079 507.234 487.032 507.24 486.985 507.238Z" fill="#00043B"/>
<path d="M98.821 400.153C98.7487 400.154 98.6771 400.139 98.6111 400.109C98.5452 400.08 98.4864 400.036 98.4389 399.982C98.3914 399.927 98.3562 399.863 98.3358 399.794C98.3155 399.725 98.3104 399.652 98.321 399.58L101.338 379.155C101.352 379.06 101.393 378.971 101.457 378.899C101.52 378.827 101.603 378.775 101.695 378.748C101.787 378.721 101.886 378.721 101.978 378.748C102.07 378.776 102.152 378.83 102.214 378.904L115.134 394.092C115.187 394.155 115.224 394.229 115.241 394.309C115.259 394.389 115.256 394.472 115.234 394.551C115.212 394.63 115.17 394.702 115.114 394.761C115.057 394.82 114.987 394.865 114.909 394.89L98.973 400.128C98.9239 400.144 98.8726 400.153 98.821 400.153ZM102.172 380.392L99.435 398.925L113.895 394.173L102.172 380.392Z" fill="#51576F"/>
<path d="M507.32 396.273C511.093 396.273 514.152 393.214 514.152 389.441C514.152 385.668 511.093 382.609 507.32 382.609C503.547 382.609 500.488 385.668 500.488 389.441C500.488 393.214 503.547 396.273 507.32 396.273Z" fill="#51576F"/>
<path d="M37.221 489.658C43.0697 489.658 47.811 484.917 47.811 479.068C47.811 473.219 43.0697 468.478 37.221 468.478C31.3723 468.478 26.631 473.219 26.631 479.068C26.631 484.917 31.3723 489.658 37.221 489.658Z" fill="#51576F"/>
<path d="M115.015 49.0101L124.385 18.7661L103.408 21.0151L115.015 49.0101Z" fill="#51576F"/>
<path d="M115.015 49.4041C114.936 49.404 114.86 49.3807 114.794 49.3371C114.729 49.2935 114.677 49.2316 114.647 49.1591L103.041 21.1591C103.018 21.102 103.008 21.0402 103.013 20.9787C103.017 20.9172 103.036 20.8576 103.067 20.8045C103.099 20.7514 103.142 20.7064 103.194 20.6728C103.246 20.6393 103.305 20.6182 103.366 20.6111L124.343 18.3621C124.408 18.3543 124.475 18.3632 124.536 18.3881C124.597 18.4129 124.651 18.4528 124.692 18.5041C124.734 18.5552 124.762 18.6157 124.775 18.6805C124.788 18.7452 124.784 18.8121 124.765 18.8751L115.394 49.1191C115.37 49.1971 115.322 49.2657 115.257 49.3157C115.193 49.3658 115.115 49.3949 115.033 49.3991L115.015 49.4041ZM103.979 21.3541L114.961 47.8411L123.826 19.2261L103.979 21.3541Z" fill="#51576F"/>
<path d="M498.228 250.669C498.178 250.606 498.115 250.556 498.043 250.523C497.971 250.489 497.892 250.473 497.812 250.475C497.487 250.475 465.221 250.594 454.589 250.491C444.183 250.391 412.823 250.785 412.508 250.791C412.43 250.792 412.353 250.81 412.282 250.843C412.212 250.877 412.15 250.926 412.1 250.986C412.05 251.046 412.014 251.117 411.994 251.192C411.974 251.268 411.971 251.347 411.985 251.424L424.338 320.436C424.36 320.56 424.425 320.673 424.522 320.754C424.618 320.835 424.741 320.88 424.867 320.88H484.729C484.855 320.88 484.976 320.836 485.073 320.756C485.169 320.676 485.235 320.564 485.258 320.441L498.343 251.115C498.358 251.037 498.356 250.956 498.336 250.879C498.316 250.802 498.279 250.73 498.228 250.669Z" fill="#00043B"/>
<path d="M444.047 262.442H444.035C443.973 262.444 443.91 262.435 443.852 262.413C443.793 262.391 443.739 262.358 443.694 262.315C443.648 262.272 443.612 262.221 443.586 262.164C443.561 262.107 443.547 262.045 443.546 261.983C443.548 261.918 443.555 261.854 443.565 261.79C443.843 258.568 444.416 255.378 445.275 252.26C445.875 249.86 447.349 247.408 449.53 244.24C449.918 243.674 450.32 243.095 450.73 242.504C453.209 239.126 455.388 235.538 457.242 231.781C459.083 227.929 460.173 223.763 460.454 219.504C460.822 213.569 458.58 208.574 456.585 204.885L456.524 204.767C455.414 202.728 454.15 200.701 452.924 198.74C449.002 192.448 444.947 185.94 445.316 178.092C445.528 173.836 446.429 169.643 447.983 165.676C449.925 160.208 451.392 154.583 452.367 148.864C452.785 146.899 453.067 144.907 453.211 142.903C453.924 132.343 449.637 124.956 441.447 122.636C431.071 119.696 418.189 125.723 412.74 136.072C408.265 144.565 407.014 155.234 408.917 168.69C409.681 174.107 410.793 178.89 411.685 182.732C412.237 185.109 412.674 186.986 412.868 188.34C413.439 192.943 413.673 197.583 413.568 202.221C413.568 207.959 413.568 213.379 415.224 218.777C415.285 218.977 415.351 219.177 415.418 219.366C416.941 223.902 419.49 227.525 421.954 231.029C424.479 234.621 426.865 238.013 427.854 241.965C429.213 247.396 428.354 255.065 427.728 259.152L427.708 259.319C427.689 259.45 427.62 259.568 427.515 259.649C427.41 259.729 427.277 259.765 427.146 259.75C427.015 259.732 426.895 259.663 426.815 259.558C426.734 259.453 426.699 259.32 426.716 259.189L426.737 259.018C427.359 254.986 428.2 247.468 426.884 242.207C425.941 238.436 423.607 235.118 421.136 231.607C418.636 228.044 416.036 224.36 414.49 219.741C414.402 219.487 414.332 219.281 414.268 219.068C412.568 213.531 412.568 208.038 412.568 202.223C412.671 197.632 412.439 193.04 411.874 188.483C411.685 187.173 411.254 185.314 410.707 182.96C409.807 179.098 408.694 174.292 407.923 168.832C405.99 155.16 407.275 144.293 411.851 135.609C417.508 124.864 430.9 118.609 441.716 121.677C450.4 124.136 454.953 131.898 454.205 142.972C454.059 145.018 453.771 147.051 453.344 149.057C452.36 154.821 450.882 160.491 448.925 166.002C447.396 169.878 446.512 173.979 446.31 178.142C445.956 185.679 449.751 191.768 453.768 198.214C455.004 200.196 456.28 202.244 457.408 204.314L457.508 204.406V204.506C459.552 208.306 461.821 213.426 461.44 219.559C461.153 223.942 460.033 228.231 458.14 232.196C456.262 236.005 454.054 239.643 451.54 243.067C451.13 243.655 450.73 244.233 450.34 244.799C448.22 247.876 446.794 250.237 446.231 252.499C445.382 255.583 444.815 258.738 444.537 261.925C444.532 262.056 444.479 262.18 444.389 262.275C444.299 262.37 444.177 262.429 444.047 262.442Z" fill="#00043B"/>
<path d="M425.908 173.039C425.84 173.039 425.772 173.025 425.71 172.998C425.647 172.971 425.591 172.932 425.544 172.882C419.811 166.782 417.779 156.169 417.696 155.72C417.684 155.655 417.685 155.589 417.698 155.525C417.712 155.46 417.738 155.399 417.775 155.345C417.812 155.291 417.859 155.244 417.915 155.208C417.97 155.173 418.031 155.148 418.096 155.136C418.226 155.113 418.36 155.142 418.469 155.217C418.578 155.292 418.653 155.406 418.679 155.536C418.699 155.643 420.743 166.31 426.272 172.197C426.339 172.268 426.383 172.357 426.4 172.453C426.417 172.549 426.405 172.648 426.366 172.737C426.327 172.827 426.264 172.903 426.182 172.957C426.101 173.01 426.005 173.039 425.908 173.039Z" fill="#00043B"/>
<path d="M435.465 261.416C435.377 261.416 435.291 261.393 435.215 261.349C435.139 261.306 435.076 261.243 435.032 261.167L434.969 261.094L434.959 260.923C434.854 259.067 434.735 256.987 434.6 254.737C434.284 249.352 435.46 242.318 436.6 235.514C437.501 230.793 438.123 226.024 438.463 221.23C438.614 217.23 436.589 212.998 434.501 209.009C434.09 208.225 433.663 207.426 433.227 206.609C430.103 200.773 426.563 194.158 425.414 186.025C424.145 176.434 425.698 166.682 429.884 157.961C429.915 157.903 429.958 157.852 430.009 157.811C430.06 157.77 430.119 157.739 430.182 157.72C430.245 157.702 430.311 157.696 430.376 157.703C430.442 157.71 430.505 157.73 430.562 157.761C430.62 157.793 430.671 157.835 430.712 157.886C430.753 157.937 430.784 157.996 430.803 158.059C430.821 158.122 430.827 158.188 430.82 158.254C430.813 158.319 430.793 158.382 430.762 158.44C426.676 166.971 425.162 176.507 426.404 185.885C427.528 193.843 431.024 200.375 434.104 206.137C434.541 206.954 434.97 207.755 435.383 208.543C437.532 212.651 439.617 217.016 439.458 221.266C439.116 226.102 438.489 230.914 437.581 235.676C436.452 242.425 435.281 249.403 435.595 254.676C435.725 256.859 435.842 258.876 435.943 260.694L435.954 260.705L435.961 260.916C435.961 261.048 435.909 261.174 435.816 261.268C435.723 261.362 435.597 261.415 435.465 261.416Z" fill="#00043B"/>
<path d="M434.943 209.278C434.847 209.278 434.754 209.25 434.673 209.199C434.593 209.147 434.529 209.073 434.489 208.986C434.449 208.9 434.435 208.803 434.448 208.708C434.461 208.613 434.502 208.525 434.564 208.452C438.756 203.573 438.473 195.439 438.464 195.352C438.461 195.286 438.472 195.221 438.494 195.159C438.517 195.097 438.551 195.041 438.596 194.992C438.64 194.944 438.694 194.905 438.754 194.877C438.813 194.85 438.878 194.834 438.943 194.831C439.009 194.829 439.075 194.839 439.136 194.862C439.198 194.884 439.255 194.919 439.303 194.963C439.351 195.008 439.39 195.062 439.418 195.121C439.446 195.181 439.461 195.245 439.464 195.311C439.477 195.66 439.764 203.924 435.317 209.098C435.271 209.153 435.214 209.198 435.15 209.229C435.085 209.26 435.015 209.276 434.943 209.278Z" fill="#00043B"/>
<path d="M424.073 258.838C423.954 258.837 423.84 258.795 423.75 258.718C423.66 258.641 423.6 258.535 423.581 258.418L423.536 258.15C422.792 253.563 420.836 245.499 416.117 243.013L414.843 242.342C408.875 239.197 402.11 235.633 399.379 231.063C397.879 228.563 397.786 224.792 397.688 220.8C397.603 217.316 397.516 213.713 396.405 211.153C395.791 209.733 394.022 207.793 391.976 205.547C386.291 199.308 377.7 189.881 380.576 177.57C382.59 168.934 387.712 162.739 393.943 161.403C399.213 160.275 404.498 162.779 408.828 168.457C408.908 168.563 408.943 168.696 408.925 168.828C408.907 168.96 408.837 169.079 408.731 169.16C408.625 169.24 408.491 169.275 408.359 169.257C408.228 169.239 408.108 169.169 408.028 169.063C403.946 163.71 399.013 161.337 394.148 162.381C388.299 163.635 383.471 169.542 381.548 177.797C378.795 189.597 387.173 198.79 392.717 204.874C394.91 207.281 396.643 209.183 397.324 210.756C398.512 213.494 398.601 217.196 398.689 220.775C398.783 224.632 398.873 228.275 400.238 230.55C402.825 234.88 409.458 238.374 415.31 241.457L416.585 242.128C421.691 244.817 423.751 253.219 424.523 257.989L424.568 258.257C424.579 258.321 424.576 258.388 424.561 258.452C424.546 258.516 424.519 258.576 424.48 258.629C424.442 258.683 424.394 258.728 424.338 258.762C424.282 258.797 424.22 258.82 424.155 258.831C424.128 258.836 424.1 258.838 424.073 258.838Z" fill="#00043B"/>
<path d="M414.972 220.08C414.843 220.08 414.719 220.03 414.626 219.942C412.284 217.699 410.719 214.767 410.159 211.573C410.01 210.692 409.724 209.841 409.311 209.05C408.521 207.954 407.522 207.025 406.372 206.317L405.816 205.909C404.394 204.904 403.11 203.718 401.996 202.381C400.72 200.736 399.783 198.853 399.24 196.844C398.73 195.165 398.385 193.44 398.207 191.695C398.196 191.562 398.238 191.432 398.324 191.33C398.41 191.229 398.532 191.166 398.664 191.156C398.796 191.146 398.926 191.189 399.026 191.274C399.127 191.36 399.191 191.481 399.203 191.613C399.378 193.287 399.711 194.942 400.197 196.555C400.707 198.435 401.579 200.197 402.766 201.742C403.883 203.078 405.175 204.257 406.608 205.248L406.954 205.504C408.209 206.282 409.296 207.302 410.154 208.504C410.635 209.389 410.967 210.347 411.136 211.341C411.647 214.348 413.114 217.11 415.321 219.217C415.393 219.285 415.443 219.374 415.465 219.472C415.486 219.57 415.477 219.672 415.44 219.764C415.403 219.857 415.339 219.937 415.256 219.993C415.174 220.049 415.076 220.079 414.976 220.079L414.972 220.08Z" fill="#00043B"/>
<path d="M399.721 197.204C399.691 197.203 399.661 197.201 399.631 197.196C392.758 195.961 389.391 189.404 389.251 189.126C389.192 189.007 389.183 188.871 389.225 188.745C389.267 188.62 389.356 188.517 389.474 188.457C389.592 188.398 389.729 188.388 389.854 188.428C389.979 188.469 390.084 188.558 390.144 188.676C390.176 188.74 393.436 195.067 399.809 196.212C399.932 196.234 400.042 196.301 400.117 196.4C400.193 196.5 400.229 196.624 400.218 196.748C400.207 196.872 400.15 196.988 400.058 197.072C399.966 197.156 399.846 197.203 399.721 197.204Z" fill="#00043B"/>
<path d="M406.315 206.198C406.208 206.2 406.104 206.169 406.015 206.109C405.896 206.031 405.813 205.908 405.785 205.768C405.756 205.628 405.784 205.483 405.863 205.364C408.954 200.69 408.457 191.775 408.452 191.685C408.443 191.543 408.492 191.403 408.587 191.296C408.681 191.19 408.815 191.125 408.957 191.116C409.098 191.112 409.235 191.161 409.34 191.254C409.446 191.347 409.512 191.476 409.526 191.616C409.55 191.997 410.051 200.978 406.762 205.953C406.713 206.028 406.647 206.089 406.569 206.132C406.491 206.175 406.404 206.197 406.315 206.198Z" fill="#00043B"/>
<path d="M454.109 262.961C454.039 262.961 453.969 262.948 453.904 262.922C453.839 262.896 453.779 262.857 453.729 262.807C453.679 262.758 453.64 262.699 453.612 262.634C453.585 262.569 453.571 262.5 453.571 262.43L453.581 262.312C454.174 259.268 454.52 254.812 452.804 250.874C451.814 248.786 450.704 246.758 449.48 244.799C449.442 244.738 449.417 244.67 449.406 244.6C449.394 244.529 449.397 244.457 449.414 244.387C449.431 244.318 449.462 244.253 449.504 244.195C449.546 244.138 449.6 244.089 449.661 244.052C449.723 244.016 449.791 243.992 449.862 243.982C449.932 243.972 450.004 243.976 450.074 243.994C450.143 244.012 450.208 244.044 450.264 244.088C450.321 244.131 450.369 244.186 450.404 244.248C451.653 246.246 452.783 248.317 453.79 250.448C455.615 254.635 455.261 259.317 454.64 262.511C454.618 262.636 454.553 262.749 454.456 262.832C454.359 262.914 454.236 262.96 454.109 262.961Z" fill="#00043B"/>
<path d="M464.159 262.849C464.041 262.848 463.926 262.809 463.832 262.736C463.738 262.664 463.671 262.563 463.641 262.449L463.573 262.203C462.547 258.138 462.968 252.938 464.821 246.736C466.17 242.207 467.621 237.836 469.002 233.747L469.702 231.669C470.523 229.231 471.31 226.897 472.018 224.675C472.037 224.605 472.071 224.539 472.116 224.483C472.161 224.426 472.217 224.379 472.281 224.344C472.345 224.31 472.415 224.288 472.487 224.282C472.56 224.275 472.632 224.283 472.702 224.305C472.771 224.327 472.835 224.363 472.89 224.41C472.945 224.458 472.989 224.516 473.021 224.581C473.053 224.646 473.072 224.717 473.076 224.789C473.08 224.862 473.069 224.934 473.044 225.003C472.333 227.229 471.544 229.569 470.722 232.012L470.022 234.09C468.65 238.17 467.197 242.53 465.853 247.044C464.053 253.058 463.64 258.066 464.614 261.929L464.679 262.165C464.717 262.302 464.698 262.449 464.628 262.573C464.557 262.697 464.44 262.788 464.303 262.826C464.256 262.84 464.208 262.847 464.159 262.849Z" fill="#00043B"/>
<path d="M472.337 175.404H472.329C472.198 175.402 472.073 175.348 471.981 175.254C471.889 175.161 471.837 175.035 471.837 174.904C471.892 170.917 472.461 166.954 473.528 163.113C475.255 157.487 474.883 151.902 472.509 147.79C471.702 146.357 470.602 145.11 469.279 144.132C467.957 143.153 466.443 142.465 464.837 142.113C461.177 141.165 457.296 141.616 453.951 143.378C453.834 143.439 453.698 143.451 453.572 143.413C453.446 143.374 453.341 143.287 453.279 143.171C453.216 143.055 453.202 142.919 453.24 142.793C453.277 142.667 453.363 142.56 453.478 142.497C457.035 140.617 461.165 140.132 465.061 141.138C466.802 141.52 468.442 142.266 469.875 143.326C471.307 144.386 472.5 145.737 473.375 147.29C475.888 151.642 476.292 157.516 474.484 163.406C473.445 167.157 472.891 171.027 472.837 174.92C472.833 175.049 472.778 175.173 472.685 175.263C472.592 175.353 472.467 175.404 472.337 175.404Z" fill="#00043B"/>
<path d="M459.421 262.998C459.387 262.998 459.354 262.995 459.321 262.989C459.251 262.976 459.185 262.95 459.126 262.912C459.066 262.874 459.015 262.824 458.975 262.766C458.935 262.708 458.907 262.642 458.892 262.573C458.877 262.504 458.876 262.433 458.889 262.364C458.819 256.749 458.269 251.151 457.244 245.631C456.73 243.34 456.886 237.51 457.106 233.024C457.128 232.683 457.142 232.342 457.156 232.008L457.695 231.992L458.231 232.052C458.217 232.395 458.202 232.743 458.181 233.085C457.874 239.324 457.914 243.7 458.295 245.397C459.332 250.976 459.888 256.634 459.956 262.308C459.965 262.39 459.962 262.474 459.947 262.556C459.925 262.679 459.86 262.791 459.764 262.872C459.668 262.953 459.546 262.997 459.421 262.998Z" fill="#00043B"/>
<path d="M457.021 205.148C456.906 205.147 456.795 205.107 456.706 205.034C456.617 204.962 456.556 204.86 456.533 204.748C455.582 200.026 454.363 195.362 452.882 190.778C451.95 188.062 451.934 184.339 452.834 179.711C453.646 175.827 454.815 172.027 456.325 168.359C456.378 168.237 456.477 168.141 456.601 168.093C456.724 168.044 456.862 168.047 456.984 168.1C457.106 168.153 457.201 168.252 457.25 168.376C457.299 168.499 457.296 168.637 457.243 168.759C455.763 172.361 454.617 176.092 453.821 179.904C452.956 184.357 452.96 187.904 453.833 190.454C455.328 195.077 456.558 199.781 457.518 204.544C457.531 204.608 457.532 204.674 457.52 204.739C457.508 204.803 457.483 204.865 457.447 204.92C457.411 204.975 457.365 205.022 457.311 205.059C457.256 205.096 457.195 205.122 457.131 205.136C457.095 205.144 457.058 205.148 457.021 205.148Z" fill="#00043B"/>
<path d="M453.327 180.346C453.203 180.345 453.083 180.302 452.987 180.223C452.891 180.144 452.825 180.035 452.801 179.913C452.776 179.792 452.795 179.665 452.853 179.556C452.911 179.446 453.006 179.36 453.12 179.312C460.668 176.159 464.32 164.055 464.358 163.933C464.403 163.802 464.496 163.694 464.619 163.63C464.742 163.567 464.884 163.553 465.017 163.591C465.149 163.63 465.262 163.718 465.332 163.837C465.401 163.957 465.422 164.098 465.39 164.233C465.237 164.751 461.551 176.952 453.534 180.3C453.469 180.329 453.398 180.344 453.327 180.346Z" fill="#00043B"/>
<path d="M469.609 262.404H469.577C469.445 262.395 469.321 262.335 469.233 262.236C469.145 262.136 469.101 262.006 469.109 261.874L469.132 261.474C469.311 258.261 469.532 255.554 469.774 253.429C470.125 251.285 470.64 249.172 471.314 247.108C472.65 243.064 473.523 238.882 473.914 234.642C473.971 233.74 473.981 232.836 473.943 231.933C473.657 229.55 473.024 227.222 472.066 225.023C471.424 223.323 470.658 221.456 469.849 219.481C465.658 209.262 459.92 195.267 463.296 183.981C463.926 181.874 465.02 179.936 466.499 178.309C467.978 176.682 469.804 175.408 471.841 174.581L472.16 174.45C475.351 173.231 478.843 173.037 482.149 173.895C489.86 175.895 495.049 182.766 496.379 192.749C496.454 193.297 496.515 193.841 496.567 194.376C498.158 209.894 492.66 222.576 488.646 231.844C487.873 233.629 487.146 235.317 486.546 236.844L486.2 237.767C485.694 239.056 485.308 240.389 485.048 241.75C484.724 243.687 484.327 245.643 483.948 247.535C483.093 251.755 482.284 255.741 482.33 259.112C482.33 259.283 482.33 259.447 482.337 259.612C482.343 259.744 482.296 259.873 482.207 259.971C482.118 260.069 481.993 260.127 481.861 260.134C481.794 260.141 481.727 260.134 481.663 260.114C481.599 260.093 481.541 260.059 481.491 260.014C481.442 259.969 481.403 259.913 481.376 259.852C481.35 259.79 481.337 259.724 481.339 259.657C481.33 259.478 481.33 259.299 481.33 259.12C481.283 255.648 482.102 251.611 482.968 247.337C483.35 245.454 483.744 243.505 484.068 241.586C484.338 240.162 484.739 238.767 485.268 237.418L485.591 236.551C486.201 234.991 486.946 233.27 487.736 231.451C491.706 222.289 497.144 209.74 495.579 194.496C495.528 193.956 495.469 193.426 495.395 192.888C494.119 183.327 489.202 176.759 481.906 174.868C478.885 174.086 475.699 174.235 472.765 175.297L472.528 175.397C470.56 176.143 468.791 177.332 467.357 178.873C465.924 180.413 464.864 182.264 464.261 184.28C460.986 195.232 466.648 209.038 470.78 219.118C471.593 221.1 472.361 222.972 473.009 224.686C474.008 226.984 474.661 229.417 474.949 231.907C474.988 232.844 474.978 233.783 474.919 234.72C474.519 239.033 473.635 243.288 472.285 247.405C471.628 249.416 471.124 251.474 470.779 253.561C470.534 255.667 470.32 258.354 470.141 261.546L470.118 261.946C470.107 262.072 470.049 262.19 469.954 262.275C469.86 262.361 469.736 262.406 469.609 262.404Z" fill="#00043B"/>
<path d="M475.221 261.67C475.083 261.671 474.949 261.617 474.849 261.522C474.749 261.426 474.689 261.296 474.683 261.157C474.675 260.985 474.675 260.813 474.675 260.632C474.661 256.283 474.978 251.939 475.621 247.637C476.276 244.006 477.212 240.431 478.421 236.945C480.176 231.867 481.452 226.635 482.231 221.318L482.358 220.318C482.812 215.967 482.452 211.569 481.297 207.349C480.38 203.741 479.029 200.256 477.273 196.972C477.202 196.849 477.183 196.702 477.22 196.564C477.258 196.426 477.348 196.309 477.472 196.237C477.596 196.166 477.743 196.147 477.881 196.185C478.019 196.222 478.136 196.313 478.207 196.436C480.018 199.801 481.406 203.376 482.34 207.081C483.529 211.432 483.897 215.967 483.426 220.452L483.298 221.467C482.505 226.845 481.215 232.137 479.446 237.276C478.254 240.71 477.331 244.232 476.683 247.808C476.049 252.052 475.737 256.338 475.751 260.628C475.751 260.799 475.751 260.955 475.758 261.111C475.764 261.254 475.714 261.393 475.618 261.499C475.522 261.604 475.388 261.667 475.246 261.674L475.221 261.67Z" fill="#00043B"/>
<path d="M481.821 207.712C481.723 207.712 481.627 207.683 481.545 207.628C481.463 207.574 481.399 207.497 481.361 207.407C481.322 207.316 481.311 207.216 481.329 207.12C481.348 207.023 481.394 206.934 481.462 206.864C485.089 203.124 485.944 191.733 485.952 191.618C485.961 191.485 486.023 191.362 486.124 191.275C486.224 191.188 486.355 191.144 486.488 191.154C486.621 191.163 486.744 191.225 486.831 191.326C486.918 191.426 486.961 191.557 486.952 191.69C486.917 192.173 486.06 203.562 482.183 207.56C482.136 207.608 482.08 207.647 482.018 207.673C481.955 207.699 481.888 207.712 481.821 207.712Z" fill="#00043B"/>
<path d="M482.766 221.891C482.693 221.891 482.622 221.875 482.556 221.845C481.343 221.248 480.23 220.466 479.256 219.529L479.096 219.372C477.571 217.883 476.206 216.238 475.024 214.465L474.936 214.33C473.77 212.622 472.717 210.841 471.781 208.997C471.723 208.877 471.714 208.74 471.757 208.614C471.8 208.489 471.892 208.385 472.011 208.327C472.13 208.268 472.268 208.26 472.394 208.303C472.519 208.346 472.623 208.437 472.681 208.557C473.619 210.402 474.678 212.184 475.849 213.892L475.937 214.027C477.095 215.753 478.436 217.35 479.937 218.788L480.099 218.942C480.954 219.747 481.923 220.421 482.976 220.942C483.079 220.99 483.162 221.071 483.213 221.173C483.263 221.275 483.277 221.391 483.253 221.502C483.228 221.613 483.167 221.712 483.079 221.784C482.99 221.855 482.881 221.894 482.767 221.895L482.766 221.891Z" fill="#00043B"/>
<path d="M488.341 257.674C488.205 257.668 488.077 257.609 487.984 257.51C487.891 257.412 487.839 257.281 487.841 257.145C487.85 257.037 487.867 256.931 487.891 256.826L487.916 256.709C488.633 253.204 489.31 249.415 489.933 245.438C490.235 243.646 490.733 241.894 491.417 240.211C493.682 234.404 497.847 228.228 501.517 222.779C504.525 218.318 507.124 214.466 507.96 211.879C509.274 207.812 509.26 203.885 509.247 200.087C509.172 197.627 509.289 195.165 509.596 192.724C510.501 186.748 513.042 181.938 515.496 177.286C519.163 170.342 522.626 163.786 520.996 153.686C520.486 150.076 518.941 146.69 516.548 143.94C514.155 141.189 511.017 139.19 507.512 138.186C499.968 135.866 491.695 137.696 486.927 142.74C477.658 152.54 481.576 170.564 482.456 174.077L482.501 174.25C482.533 174.378 482.512 174.515 482.444 174.628C482.375 174.742 482.264 174.823 482.135 174.855C482.007 174.887 481.871 174.866 481.757 174.798C481.643 174.729 481.562 174.618 481.53 174.49L481.491 174.342C480.584 170.718 476.573 152.235 486.2 142.053C491.224 136.738 499.909 134.801 507.805 137.23C511.491 138.286 514.791 140.387 517.307 143.28C519.823 146.173 521.447 149.733 521.982 153.53C523.67 163.964 519.966 170.978 516.382 177.762C513.964 182.34 511.464 187.075 510.582 192.883C510.284 195.274 510.171 197.684 510.244 200.093C510.258 203.969 510.271 207.977 508.908 212.193C508.028 214.912 505.394 218.819 502.343 223.342C498.699 228.748 494.568 234.874 492.343 240.579C491.685 242.194 491.207 243.876 490.917 245.596C490.292 249.589 489.61 253.396 488.892 256.906L488.862 257.046C488.85 257.1 488.839 257.152 488.832 257.206C488.831 257.269 488.818 257.331 488.792 257.389C488.767 257.447 488.73 257.499 488.685 257.543C488.639 257.586 488.585 257.62 488.526 257.643C488.467 257.665 488.404 257.676 488.341 257.674Z" fill="#00043B"/>
<path d="M496.065 194.92C496 194.921 495.935 194.909 495.874 194.884C495.814 194.86 495.759 194.824 495.712 194.778C495.666 194.732 495.629 194.677 495.603 194.617C495.578 194.557 495.565 194.492 495.565 194.427V194.292L495.627 194.173C497.013 191.633 498.327 189.233 498.527 187.734C498.662 185.578 498.559 183.413 498.221 181.279C498.105 180.328 497.973 179.353 497.841 178.379C497.528 176.067 497.204 173.679 497.114 171.69C497.105 171.606 497.1 171.521 497.099 171.436C496.945 167.192 499.762 162.214 500.821 160.336C501.007 160.009 501.137 159.786 501.175 159.69C501.224 159.568 501.317 159.47 501.436 159.415C501.555 159.361 501.691 159.354 501.815 159.396C501.936 159.439 502.036 159.528 502.092 159.644C502.148 159.76 502.156 159.894 502.115 160.016C501.993 160.297 501.849 160.569 501.687 160.829C500.665 162.635 497.95 167.436 498.094 171.415C498.094 171.49 498.1 171.553 498.105 171.61C498.196 173.582 498.517 175.951 498.827 178.242C498.959 179.22 499.092 180.2 499.208 181.153C499.559 183.37 499.662 185.62 499.514 187.86C499.289 189.541 497.944 192.01 496.514 194.626C496.475 194.713 496.412 194.786 496.332 194.838C496.253 194.89 496.16 194.919 496.065 194.92Z" fill="#00043B"/>
<path d="M497.608 172.167C497.494 172.167 497.384 172.128 497.296 172.057C491.19 167.157 491.208 151.865 491.212 151.216C491.212 151.083 491.265 150.956 491.358 150.862C491.452 150.769 491.579 150.716 491.712 150.716C491.845 150.716 491.972 150.769 492.066 150.862C492.159 150.956 492.212 151.083 492.212 151.216C492.212 151.37 492.192 166.677 497.921 171.271C498.002 171.336 498.06 171.424 498.089 171.523C498.117 171.623 498.114 171.729 498.08 171.827C498.045 171.924 497.982 172.009 497.897 172.069C497.813 172.129 497.712 172.161 497.608 172.161V172.167Z" fill="#00043B"/>
<path d="M498.712 181.717C498.598 181.717 498.487 181.678 498.398 181.606C498.309 181.535 498.247 181.435 498.223 181.323C498.198 181.212 498.213 181.095 498.264 180.993C498.315 180.891 498.4 180.809 498.504 180.762C507.047 176.854 511.041 161.669 511.08 161.516C511.113 161.387 511.196 161.277 511.31 161.21C511.424 161.142 511.56 161.123 511.689 161.156C511.817 161.189 511.928 161.272 511.995 161.386C512.063 161.5 512.082 161.636 512.049 161.765C511.884 162.408 507.897 177.565 498.92 181.672C498.855 181.701 498.784 181.717 498.712 181.717Z" fill="#00043B"/>
<path d="M528.243 321.946H311.073V0.00390625H528.243V321.946ZM312.073 320.946H527.243V1.00391H312.073V320.946Z" fill="#00043B"/>
<path d="M311.647 178.984L311.499 177.995C316.813 177.195 326.534 173.14 342.666 158.395C366.097 136.995 389.104 116.914 412.975 106.495C424.475 101.464 435.127 99.1051 445.582 99.2601C461.382 99.5031 470.572 104.96 476.813 109.686C479.63 111.82 482.197 114.108 484.681 116.322C491.665 122.546 498.262 128.422 509.081 129.777C515.252 130.588 521.506 130.528 527.66 129.6L527.816 130.587C521.57 131.531 515.221 131.592 508.958 130.769C497.826 129.379 491.116 123.399 484.013 117.069C481.544 114.869 478.991 112.594 476.207 110.484C470.087 105.849 461.073 100.499 445.563 100.261C435.306 100.107 424.744 102.439 413.372 107.413C389.641 117.771 366.703 137.789 343.337 159.135C330.24 171.104 319.577 177.786 311.647 178.984Z" fill="#00043B"/>
<path d="M412.921 107.384C408.467 104.748 404.221 101.776 400.221 98.4919C395.472 94.6269 391.894 89.5979 388.107 84.2739C383.613 77.9569 378.967 71.4249 372.207 67.0739C367.131 63.8623 361.292 62.0577 355.289 61.8449C336.95 60.8349 321.568 69.4599 311.875 76.8769L311.267 76.0829C321.095 68.5629 336.726 59.8159 355.344 60.8469C361.519 61.0679 367.524 62.9271 372.744 66.2339C379.667 70.6899 384.37 77.3019 388.918 83.6959C392.665 88.9639 396.204 93.9379 400.848 97.7189C404.809 100.968 409.013 103.91 413.422 106.519L412.921 107.384Z" fill="#00043B"/>
<path d="M476.738 110.529L476.285 109.638C486.146 104.615 491.009 97.3787 495.711 90.3797C500.862 82.7127 505.728 75.4707 516.572 72.0417L516.654 72.0187C517.528 71.7467 518.418 71.5057 519.301 71.3007C522.066 70.6617 524.873 70.2245 527.701 69.9927L527.785 70.9927C525.006 71.2209 522.247 71.6507 519.53 72.2787C518.646 72.4787 517.756 72.7267 516.882 72.9997L516.802 73.0227C506.343 76.3567 501.582 83.4417 496.543 90.9417C491.767 98.0417 486.832 105.389 476.738 110.529Z" fill="#00043B"/>
<path d="M516.73 73.0191H516.53L516.378 72.8811C505.449 62.4721 481.214 45.2461 441.739 46.7701C419.885 47.6161 400.975 51.8701 385.539 59.4081C381.062 61.5626 376.79 64.122 372.779 67.0541L372.186 66.2541C376.246 63.2852 380.569 60.694 385.101 58.5131C400.665 50.9131 419.709 46.6271 441.701 45.7751C481.551 44.2251 506.024 61.6431 517.068 72.1601L516.727 72.5191L516.73 73.0191Z" fill="#00043B"/>
<path d="M385.321 59.4567C385.252 59.4569 385.185 59.4429 385.122 59.4156C385.059 59.3882 385.002 59.348 384.956 59.2977L356.672 28.9647C356.624 28.9174 356.586 28.8609 356.56 28.7985C356.534 28.7361 356.521 28.6691 356.522 28.6015C356.523 28.534 356.537 28.4674 356.564 28.4056C356.592 28.3438 356.631 28.2882 356.68 28.2421C356.73 28.196 356.788 28.1603 356.851 28.1373C356.915 28.1143 356.982 28.1044 357.05 28.1082C357.117 28.112 357.183 28.1294 357.244 28.1594C357.304 28.1894 357.358 28.2313 357.402 28.2827L385.684 58.6157C385.75 58.6869 385.795 58.7759 385.811 58.8718C385.828 58.9678 385.816 59.0664 385.777 59.1557C385.738 59.245 385.674 59.3211 385.593 59.3745C385.512 59.428 385.416 59.4565 385.319 59.4567H385.321Z" fill="#00043B"/>
<path d="M409.976 46.674C409.884 46.674 409.793 46.6484 409.714 46.6C409.636 46.5517 409.572 46.4824 409.53 46.4L397.521 22.723C397.461 22.6046 397.451 22.4672 397.492 22.3411C397.533 22.215 397.623 22.1105 397.741 22.0505C397.86 21.9906 397.997 21.9801 398.123 22.0215C398.25 22.0628 398.354 22.1526 398.414 22.271L410.421 45.948C410.46 46.0243 410.478 46.1093 410.475 46.1947C410.471 46.2802 410.446 46.3633 410.401 46.4362C410.356 46.509 410.293 46.5691 410.218 46.6108C410.144 46.6524 410.06 46.6742 409.974 46.674H409.976Z" fill="#00043B"/>
<path d="M438.161 38.193C438.039 38.1927 437.922 38.1481 437.831 38.0674C437.74 37.9868 437.681 37.8757 437.666 37.755L435.461 20.104C435.445 19.9724 435.481 19.8398 435.562 19.7351C435.644 19.6305 435.763 19.5625 435.895 19.546C436.026 19.533 436.157 19.5707 436.261 19.6515C436.365 19.7323 436.433 19.8499 436.453 19.98L438.653 37.627C438.669 37.7585 438.633 37.8912 438.551 37.9958C438.47 38.1005 438.35 38.1685 438.219 38.185C438.203 38.191 438.183 38.193 438.161 38.193Z" fill="#00043B"/>
<path d="M465.121 41.1329C465.055 41.1331 464.989 41.1198 464.928 41.0939C464.806 41.0426 464.709 40.945 464.659 40.8223C464.608 40.6997 464.609 40.5621 464.66 40.4399L472.26 22.3029C472.312 22.1822 472.41 22.087 472.532 22.038C472.654 21.9889 472.791 21.99 472.912 22.0409C473.033 22.0918 473.13 22.1885 473.18 22.31C473.231 22.4315 473.231 22.5679 473.182 22.6899L465.582 40.8269C465.544 40.9176 465.48 40.995 465.398 41.0494C465.316 41.1039 465.219 41.1329 465.121 41.1329Z" fill="#00043B"/>
<path d="M494.288 51.918C494.189 51.918 494.093 51.8888 494.011 51.834C493.929 51.7792 493.865 51.7014 493.827 51.6103C493.789 51.5192 493.778 51.4189 493.797 51.322C493.816 51.2252 493.864 51.1361 493.933 51.066L519.912 24.841C520.007 24.7568 520.13 24.7118 520.257 24.715C520.384 24.7183 520.504 24.7696 520.595 24.8585C520.685 24.9475 520.738 25.0675 520.744 25.1942C520.749 25.3209 520.706 25.4449 520.623 25.541L494.643 51.766C494.597 51.8136 494.542 51.8516 494.481 51.8777C494.42 51.9037 494.354 51.9175 494.288 51.918Z" fill="#00043B"/>
<path d="M544.103 321.446H295.213V341.482H544.103V321.446Z" fill="#00043B"/>
<path d="M280.893 298.26C280.636 298.19 280.378 298.12 280.128 298.046C279.95 297.991 279.801 297.868 279.713 297.704C279.625 297.54 279.605 297.348 279.657 297.169C279.681 297.081 279.722 296.998 279.779 296.926C279.835 296.854 279.905 296.793 279.985 296.748C280.065 296.704 280.153 296.675 280.244 296.665C280.335 296.655 280.427 296.662 280.515 296.688C280.593 296.711 280.674 296.731 280.752 296.754C278.89 277.036 276.339 262.886 272.821 258.935C245.663 262.074 198.18 261.26 198.18 261.26C198.18 261.26 193.78 278.434 188.553 300.697C189.353 300.243 190.146 299.776 190.903 299.291C190.98 299.242 191.066 299.209 191.156 299.193C191.246 299.178 191.339 299.181 191.428 299.202C191.517 299.223 191.601 299.261 191.675 299.315C191.748 299.369 191.811 299.437 191.858 299.515C191.956 299.674 191.987 299.865 191.946 300.047C191.905 300.229 191.795 300.388 191.639 300.49C190.664 301.114 189.639 301.72 188.601 302.29C188.469 302.368 188.312 302.393 188.163 302.358C181.585 330.458 174.496 366.099 171.877 385.558C166.437 425.969 195.929 521.083 195.929 521.083C195.929 521.083 218.152 520.345 229.521 514.455C219.955 475.155 208.77 393.407 210.821 390.267C212.872 387.127 229.268 345.267 233.88 320.676C236.442 348.408 258.9 517.066 258.9 517.066C258.9 517.066 273.646 520.966 287.253 516.083C286.075 500.066 287.004 365.138 280.893 298.26ZM199.968 294.32C198.792 295.496 197.535 296.588 196.207 297.59C196.134 297.645 196.051 297.685 195.962 297.707C195.874 297.73 195.782 297.734 195.692 297.72C195.601 297.706 195.515 297.674 195.437 297.626C195.359 297.578 195.292 297.515 195.239 297.441C195.129 297.29 195.083 297.101 195.11 296.917C195.137 296.732 195.236 296.565 195.384 296.451C196.66 295.489 197.868 294.44 198.998 293.31C199.062 293.245 199.139 293.193 199.223 293.159C199.307 293.124 199.398 293.106 199.489 293.107C199.581 293.108 199.671 293.127 199.755 293.163C199.839 293.2 199.914 293.253 199.977 293.319C200.106 293.454 200.177 293.635 200.175 293.821C200.174 294.008 200.099 294.187 199.968 294.32ZM206.319 285.713C205.53 287.188 204.644 288.609 203.667 289.966C203.614 290.041 203.547 290.104 203.469 290.152C203.391 290.2 203.305 290.232 203.214 290.246C203.124 290.26 203.032 290.256 202.943 290.233C202.854 290.211 202.771 290.171 202.698 290.116C202.55 290.003 202.451 289.836 202.424 289.651C202.397 289.466 202.443 289.278 202.552 289.127C203.492 287.821 204.344 286.453 205.103 285.034C205.145 284.953 205.204 284.881 205.274 284.823C205.345 284.765 205.426 284.722 205.514 284.695C205.601 284.669 205.693 284.661 205.784 284.671C205.875 284.681 205.963 284.709 206.043 284.753C206.206 284.845 206.326 284.997 206.378 285.176C206.43 285.356 206.409 285.548 206.321 285.713H206.319ZM210.119 275.668C209.723 277.297 209.237 278.902 208.662 280.476C208.631 280.562 208.584 280.642 208.522 280.71C208.461 280.777 208.386 280.832 208.303 280.871C208.22 280.909 208.13 280.931 208.039 280.935C207.947 280.938 207.856 280.923 207.77 280.891C207.597 280.822 207.457 280.689 207.381 280.518C207.305 280.348 207.299 280.155 207.364 279.98C207.921 278.457 208.392 276.903 208.775 275.327C208.796 275.238 208.834 275.154 208.888 275.079C208.941 275.005 209.009 274.942 209.087 274.894C209.165 274.846 209.252 274.814 209.342 274.8C209.433 274.786 209.525 274.789 209.614 274.811C209.793 274.86 209.946 274.977 210.04 275.137C210.134 275.297 210.161 275.488 210.116 275.668H210.119ZM211.132 270.013C211.113 270.183 211.033 270.34 210.907 270.455C210.78 270.57 210.616 270.635 210.445 270.637C210.418 270.637 210.39 270.635 210.363 270.632C210.271 270.621 210.183 270.591 210.103 270.545C210.023 270.5 209.952 270.438 209.896 270.365C209.84 270.292 209.798 270.209 209.774 270.12C209.75 270.031 209.744 269.938 209.756 269.846C209.926 268.43 210.016 267.005 210.025 265.578C210.025 265.22 210.017 265.022 210.017 265.013C210.012 264.921 210.025 264.829 210.055 264.743C210.086 264.656 210.133 264.576 210.194 264.507C210.255 264.439 210.33 264.383 210.412 264.343C210.495 264.303 210.585 264.28 210.677 264.275C210.769 264.271 210.861 264.285 210.947 264.317C211.033 264.349 211.113 264.397 211.18 264.46C211.247 264.522 211.302 264.598 211.34 264.682C211.378 264.766 211.398 264.856 211.401 264.948C211.401 264.948 211.411 265.169 211.411 265.578C211.401 267.061 211.307 268.541 211.129 270.013H211.132ZM258.964 270.724C258.921 269.869 258.927 269.013 258.982 268.159C258.999 267.975 259.087 267.806 259.227 267.686C259.367 267.566 259.548 267.505 259.732 267.516C259.824 267.525 259.913 267.552 259.994 267.595C260.075 267.638 260.147 267.697 260.206 267.768C260.264 267.839 260.308 267.921 260.335 268.009C260.362 268.097 260.371 268.189 260.362 268.281C260.313 269.074 260.308 269.869 260.348 270.663C260.353 270.755 260.34 270.847 260.309 270.934C260.279 271.02 260.231 271.1 260.17 271.169C260.108 271.237 260.034 271.293 259.951 271.333C259.868 271.372 259.778 271.395 259.686 271.4H259.656C259.475 271.399 259.302 271.328 259.172 271.202C259.043 271.076 258.967 270.905 258.961 270.724H258.964ZM261.97 281.424C261.89 281.457 261.804 281.474 261.718 281.474C261.577 281.473 261.441 281.43 261.325 281.35C261.21 281.269 261.122 281.156 261.073 281.024C260.485 279.489 260.017 277.91 259.673 276.303C259.633 276.121 259.666 275.931 259.765 275.774C259.864 275.616 260.021 275.504 260.202 275.461C260.292 275.442 260.384 275.441 260.474 275.458C260.564 275.474 260.65 275.509 260.727 275.559C260.804 275.609 260.87 275.674 260.921 275.75C260.973 275.826 261.009 275.911 261.027 276.001C261.354 277.536 261.799 279.043 262.359 280.509C262.426 280.683 262.423 280.876 262.35 281.047C262.277 281.218 262.139 281.353 261.967 281.424H261.97ZM267.554 289.97C267.489 290.034 267.411 290.084 267.326 290.117C267.241 290.15 267.15 290.166 267.059 290.164C266.968 290.161 266.878 290.141 266.795 290.103C266.712 290.065 266.637 290.011 266.575 289.944C265.46 288.742 264.459 287.439 263.583 286.053C263.483 285.895 263.449 285.704 263.488 285.522C263.527 285.339 263.635 285.178 263.79 285.074C263.866 285.024 263.952 284.99 264.042 284.973C264.132 284.957 264.224 284.959 264.313 284.979C264.402 284.998 264.487 285.036 264.561 285.088C264.636 285.141 264.699 285.208 264.747 285.286C265.576 286.599 266.524 287.832 267.58 288.97C267.706 289.108 267.773 289.289 267.768 289.476C267.763 289.663 267.685 289.84 267.551 289.97H267.554ZM275.891 295.726C275.836 295.847 275.748 295.949 275.637 296.021C275.526 296.093 275.396 296.131 275.264 296.132C275.16 296.133 275.057 296.109 274.964 296.064C273.503 295.362 272.102 294.542 270.775 293.61C270.623 293.501 270.52 293.338 270.487 293.154C270.454 292.97 270.494 292.781 270.598 292.626C270.649 292.55 270.714 292.485 270.79 292.435C270.867 292.384 270.952 292.35 271.042 292.333C271.132 292.316 271.224 292.317 271.313 292.337C271.403 292.356 271.487 292.393 271.562 292.446C272.827 293.333 274.162 294.116 275.555 294.785C275.722 294.867 275.851 295.012 275.913 295.188C275.975 295.364 275.966 295.557 275.888 295.726H275.891ZM258.901 517.067C258.901 517.067 274.273 520.037 287.254 516.084C286.078 500.066 287.007 365.138 280.896 298.26" fill="#00043B"/>
<path d="M170.087 543.104C170.14 544.495 170.52 545.855 171.196 547.072L170.087 543.104Z" fill="#00043B"/>
<path d="M229.853 545.04H229.847L229.767 542.84H229.76C229.721 531.551 228.143 533.03 226.844 518.177C226.71 518.277 226.575 518.359 226.444 518.451L226.081 514.515L225.081 514.607L225.492 519.063C218.36 523.411 211.444 522 208.158 521.704L207.571 517.58L206.581 517.72L207.141 521.659C206.887 521.65 206.634 521.702 206.404 521.811C204.525 522.944 206.477 523.516 204.183 526.869C201.889 530.222 179.468 534.453 173.033 536.505C169.413 537.659 168.962 541.213 169.646 544.29L169.687 544.295C169.826 545.067 170.057 545.82 170.375 546.537C170.742 547.62 171.429 548.565 172.345 549.249C174.512 550.307 218.483 548.917 219.484 549.168C220.485 549.419 220.53 550.019 220.53 550.019L229.762 549.64C229.933 548.113 229.964 546.573 229.853 545.04ZM171.495 546.567C171.148 545.879 170.888 545.151 170.719 544.399C179.087 545.03 211.602 543.178 228.775 543.108L228.847 545.074C206.298 545.819 180.375 546.739 171.495 546.567Z" fill="#00043B"/>
<path d="M284.376 532.581C282.459 525.872 281.387 523.904 280.932 519.049C280.904 519.077 280.877 519.095 280.85 519.122V516.742H279.85V519.909C277.009 521.645 274.543 518.945 272.419 519.049C269.419 519.195 269.453 521.501 265.519 519.976L264.603 517.113L263.652 517.413L264.299 519.436C264.224 519.4 264.16 519.373 264.082 519.336C264.413 521.609 264.282 522.745 263.746 526.771C263.081 531.759 261.352 534.98 261.189 537.998C261.096 539.728 260.618 544.217 262 546.532C261.975 546.62 261.975 546.713 262 546.801L263.195 550.55C263.208 550.591 263.244 550.613 263.265 550.65C263.377 551.125 263.627 551.556 263.982 551.89C264.338 552.224 264.784 552.446 265.265 552.528C269.045 553.368 278.755 553.546 282.552 552.328C282.898 552.121 283.188 551.833 283.398 551.489C283.609 551.145 283.733 550.755 283.76 550.353C283.855 550.279 283.92 550.172 283.943 550.053L284.768 545.606C284.771 545.577 284.771 545.547 284.768 545.517C287.032 538.483 285.24 535.238 284.376 532.581ZM264.025 549.881L263.147 547.126C266.657 547.397 280.063 547.005 283.526 546.847L283.048 549.419C279.993 549.512 270.694 549.994 264.021 549.877L264.025 549.881Z" fill="#00043B"/>
<path d="M193.835 23.5911C194.535 20.1521 198.083 17.0851 202.329 16.3611C210.657 14.9401 227.691 17.1431 233.755 18.7551C239.819 20.3671 253.089 25.5251 256.232 38.0981C259.375 50.6711 254.721 64.6421 243.776 76.3561C240.516 79.2561 239.585 77.8561 238.537 73.2391C237.489 68.6221 236.558 67.4391 239.003 65.6091C241.448 63.7791 243.776 58.0871 240.051 57.3341C236.326 56.5811 234.812 58.9611 234.812 58.9611C233.881 61.3111 231.785 62.0611 231.552 59.6991C231.319 57.3371 230.718 54.0171 233.752 47.1861C236.786 40.3551 234.809 34.3371 231.2 33.1551C227.591 31.9731 217.813 32.9401 208.966 36.4861C203.73 37.5611 192.594 29.7041 193.835 23.5911Z" fill="#00043B"/>
<path d="M214.28 91.2179C211.78 91.2179 210.033 90.7569 208.838 89.8129C207.585 88.8229 206.938 87.3369 206.738 84.9959C206.697 84.5159 206.712 82.6449 206.733 80.0539C206.764 76.1999 206.814 69.8899 206.604 68.6109C206.048 68.4777 205.485 68.3775 204.917 68.3109C202.859 68.0209 201.589 67.7869 201.3 66.9849C201.066 66.3359 201.719 64.1599 203.8 57.9519C204.607 55.5419 205.441 53.0519 205.521 52.4319C205.746 50.7059 205.816 48.6179 205.892 46.4069C205.942 44.8979 205.992 43.3369 206.101 41.8069C206.398 38.963 206.967 36.1542 207.801 33.4189L208.756 33.7119C207.953 36.3764 207.399 39.1098 207.103 41.8769C207.003 43.3859 206.945 44.9379 206.895 46.4389C206.82 48.6739 206.748 50.7859 206.517 52.5589C206.031 54.4918 205.442 56.3972 204.752 58.2669C203.722 61.3449 202.165 65.9969 202.259 66.6799C203.156 67.0376 204.103 67.2531 205.066 67.3189C205.819 67.371 206.56 67.5323 207.266 67.7979L207.41 67.8769L207.48 68.0249C207.775 68.6539 207.799 72.4059 207.737 80.0579C207.718 82.4269 207.701 84.4729 207.737 84.9059C207.913 86.9489 208.446 88.2189 209.465 89.0239C211.065 90.2909 214.121 90.5369 219.065 89.7979C227.338 88.5619 233.754 80.9189 233.819 80.8419L234.588 81.4799C234.319 81.8059 227.871 89.4939 219.213 90.7879C217.581 91.0513 215.933 91.195 214.28 91.2179Z" fill="#00043B"/>
<path d="M242.857 90.8651C241.657 87.9461 240.984 83.5751 240.857 77.8731L241.857 77.8501C241.985 83.4291 242.634 87.6801 243.787 90.4851L242.857 90.8651Z" fill="#00043B"/>
<path d="M216 97.4583L215.086 97.1633C215.172 96.9004 215.244 96.6334 215.303 96.3633C215.32 96.3097 215.334 96.2549 215.343 96.1993C215.386 96.0053 215.411 95.8793 215.429 95.7593C215.48 95.5183 215.512 95.3033 215.539 95.0953C215.735 93.63 215.775 92.1481 215.66 90.6743L216.611 90.5283L216.618 90.6393C216.737 92.1683 216.694 93.7055 216.489 95.2253C216.461 95.4533 216.424 95.6963 216.372 95.9323C216.35 96.0774 216.321 96.2213 216.284 96.3633C216.277 96.4447 216.259 96.5247 216.231 96.6013C216.169 96.8909 216.092 97.1769 216 97.4583Z" fill="#00043B"/>
<path d="M343.952 316.097C343.447 316.093 342.949 315.989 342.485 315.79C340.313 314.876 332.606 304.813 331.617 303.34C330.628 301.564 329.856 299.676 329.317 297.716C328.672 295.737 327.696 292.748 327.017 292.748C326.571 292.748 326.178 293.594 325.965 295.013C325.798 296.375 325.727 297.747 325.753 299.119V299.49C325.758 301.616 325.766 306.038 322.745 307.522C321.739 308.014 320.998 308.057 320.473 307.65C319.512 306.899 319.82 305.031 320.323 302.667C320.59 300.402 320.614 298.114 320.395 295.843C320.321 294.925 320.294 294.003 320.313 293.082C320.359 292.482 320.601 290.754 320.913 288.57C321.378 285.264 321.956 281.149 322.025 279.609C322.131 277.228 319.949 273.409 319.925 273.37L319.683 272.95L320.096 272.696C320.171 272.649 327.696 267.996 334.011 264.543L334.48 264.286L334.705 264.771C340.964 278.313 349.477 282.332 355.111 284.99L356.101 285.46C358.839 286.771 359.478 288.092 359.533 288.97C359.553 289.329 359.475 289.686 359.308 290.004C359.142 290.322 358.892 290.589 358.586 290.776C358.223 291.008 357.804 291.141 357.374 291.16C356.943 291.179 356.515 291.085 356.132 290.886C353.913 289.707 348.626 287.463 347.473 287.536C347.481 288.304 349.31 291.506 353.292 295.803C356.32 299.073 358.116 302.425 357.978 304.55C357.972 304.859 357.903 305.162 357.774 305.443C357.645 305.723 357.46 305.973 357.229 306.178C357.112 306.272 356.977 306.341 356.832 306.381C356.688 306.42 356.536 306.429 356.388 306.407C354.327 306.168 350.176 300.685 350.134 300.63C347.762 297.48 342.606 291.507 341.368 291.236C340.887 292.378 346.594 299.769 348.768 302.582C353.487 308.692 354.415 311.288 352.444 312.87C352.299 312.985 352.132 313.068 351.953 313.115C351.774 313.163 351.588 313.173 351.405 313.145C349.505 312.925 346.446 309.319 343.705 305.819C343.161 305.126 342.399 304.065 341.517 302.837C339.897 300.584 336.991 296.537 335.963 295.702C336.12 297.708 336.755 299.646 337.816 301.355C338.803 302.809 339.884 304.196 341.054 305.507C342.79 307.44 344.357 309.518 345.739 311.717C346.846 313.752 346.283 314.86 345.85 315.34C345.604 315.592 345.308 315.79 344.981 315.92C344.654 316.051 344.304 316.111 343.952 316.097ZM327.021 291.748C328.421 291.748 329.24 294.248 330.272 297.405C330.785 299.276 331.515 301.081 332.447 302.782C333.815 304.82 341.139 314.138 342.873 314.868C343.225 315.055 343.623 315.135 344.019 315.1C344.416 315.064 344.793 314.914 345.106 314.668C345.549 314.179 345.46 313.3 344.858 312.195C343.507 310.054 341.977 308.032 340.285 306.149C339.078 304.797 337.965 303.364 336.953 301.86C335.953 300.16 334.093 295.672 335.439 294.691C335.51 294.641 335.589 294.605 335.674 294.586C335.758 294.567 335.846 294.565 335.931 294.58C336.79 294.717 338.519 296.955 342.331 302.253C343.207 303.471 343.963 304.524 344.442 305.135C345.802 306.871 349.782 311.95 351.523 312.151C351.574 312.164 351.628 312.165 351.68 312.154C351.732 312.144 351.781 312.122 351.823 312.09C352.978 311.162 352.738 309.35 347.982 303.19C341.124 294.307 339.507 291.439 340.774 290.404C340.864 290.331 340.969 290.278 341.082 290.248C341.195 290.218 341.312 290.213 341.427 290.232C343.603 290.494 350.869 299.932 350.94 300.025C352.58 302.202 355.429 305.285 356.511 305.41C356.663 305.309 356.787 305.171 356.87 305.009C356.954 304.846 356.994 304.666 356.988 304.483C357.107 302.65 355.371 299.508 352.565 296.483C350.276 294.011 346.065 288.883 346.524 287.191C346.558 287.05 346.628 286.92 346.728 286.815C346.828 286.709 346.954 286.632 347.093 286.591C348.625 286.133 355.841 289.591 356.609 290C356.835 290.116 357.087 290.171 357.34 290.159C357.594 290.147 357.84 290.068 358.053 289.931C358.209 289.84 358.337 289.708 358.423 289.549C358.51 289.391 358.551 289.212 358.543 289.031C358.519 288.631 358.189 287.563 355.678 286.36L354.692 285.892C348.992 283.204 340.421 279.157 334.032 265.674C328.687 268.62 322.632 272.313 321.032 273.295C321.632 274.411 323.126 277.46 323.032 279.652C322.962 281.24 322.38 285.381 321.912 288.708C321.619 290.788 321.366 292.584 321.324 293.155C321.287 293.644 321.343 294.636 321.406 295.786C321.639 298.145 321.608 300.522 321.315 302.874C321.068 304.029 320.556 306.434 321.102 306.859C321.277 306.998 321.732 306.91 322.317 306.622C324.778 305.414 324.77 301.413 324.766 299.49V299.118C324.739 297.697 324.814 296.275 324.989 294.864C325.096 294.094 325.447 291.748 327.021 291.748Z" fill="#00043B"/>
<path d="M107.351 140.292C105.379 139.679 103.493 138.816 101.739 137.724C99.9644 136.649 98.3831 135.283 97.061 133.683C95.79 132.059 94.723 130.343 93.611 128.664C92.499 126.985 91.385 125.318 90.18 123.722C87.8444 120.487 84.9402 117.704 81.609 115.507C79.9845 114.394 78.1562 113.612 76.229 113.207C74.3032 112.851 72.3235 112.911 70.423 113.383L70.502 113.349C69.174 114.092 67.8533 114.848 66.54 115.617L64.588 116.792C63.9508 117.15 63.3508 117.571 62.797 118.047C62.3122 118.509 62.0254 119.141 61.997 119.809C61.9989 120.101 62.1054 120.382 62.297 120.601C62.5273 120.812 62.8085 120.959 63.113 121.028C64.5571 121.209 66.0227 120.966 67.331 120.328C68.721 119.769 70.053 119.028 71.465 118.401C72.1853 118.057 72.9494 117.814 73.736 117.678C74.5743 117.6 75.4152 117.8 76.128 118.248C77.4909 119.063 78.6416 120.188 79.486 121.532C80.3633 122.86 80.8802 124.393 80.986 125.981C80.9892 126.025 80.9837 126.068 80.9699 126.11C80.956 126.151 80.934 126.189 80.9052 126.221C80.8764 126.254 80.8414 126.281 80.8021 126.299C80.7629 126.318 80.7203 126.329 80.6769 126.331C80.6334 126.333 80.59 126.327 80.5491 126.312C80.5082 126.297 80.4707 126.274 80.4389 126.244C80.407 126.215 80.3814 126.179 80.3635 126.139C80.3457 126.1 80.336 126.057 80.335 126.013V126.008C80.2266 124.538 79.7391 123.121 78.92 121.895C78.1304 120.649 77.0588 119.607 75.792 118.851C75.2058 118.477 74.5116 118.308 73.819 118.372C73.1024 118.504 72.4068 118.731 71.751 119.048C70.383 119.667 69.041 120.415 67.603 121.002C66.1532 121.708 64.5264 121.968 62.929 121.747C62.4866 121.646 62.0796 121.428 61.751 121.115C61.4302 120.762 61.2483 120.304 61.239 119.827C61.2549 118.954 61.6142 118.122 62.239 117.512C62.8335 116.986 63.4813 116.523 64.172 116.13L66.134 114.938C67.4493 114.158 68.7723 113.394 70.103 112.646L70.147 112.621L70.182 112.612C72.205 112.092 74.3168 112.016 76.372 112.39C77.3987 112.57 78.3989 112.878 79.349 113.307C79.834 113.507 80.265 113.775 80.725 114.007C81.1845 114.235 81.6285 114.494 82.054 114.78C85.4832 117.019 88.4772 119.861 90.89 123.17C92.121 124.787 93.263 126.465 94.377 128.148C95.491 129.831 96.577 131.534 97.795 133.082C100.407 136.053 103.811 138.218 107.61 139.322L107.642 139.332C107.768 139.372 107.874 139.46 107.935 139.578C107.997 139.696 108.009 139.833 107.969 139.959C107.929 140.086 107.841 140.191 107.723 140.253C107.606 140.314 107.468 140.326 107.342 140.286L107.351 140.292Z" fill="#00043B"/>
<path d="M94.433 157.204C94.36 157.132 87.133 149.99 83.561 149.023L83.486 149.005C83.422 148.988 83.363 148.976 83.305 148.964C79.1473 148.514 75.047 147.636 71.069 146.345L71.384 145.396C75.3112 146.668 79.3588 147.533 83.463 147.977C83.558 147.995 83.627 148.009 83.694 148.026L83.749 148.039C87.558 149.009 94.829 156.189 95.138 156.494L94.433 157.204Z" fill="#00043B"/>
<path d="M91.053 145.513C90.6852 146.143 90.2116 146.705 89.653 147.174C89.1009 147.648 88.4823 148.039 87.817 148.333C87.147 148.626 86.4406 148.828 85.717 148.933C84.9976 149.037 84.2694 149.067 83.544 149.021C83.4783 149.019 83.4138 149.003 83.3542 148.975C83.2946 148.948 83.241 148.909 83.1966 148.86C83.1521 148.812 83.1176 148.755 83.095 148.693C83.0724 148.632 83.0622 148.566 83.065 148.5C83.0677 148.435 83.0834 148.37 83.1111 148.311C83.1387 148.251 83.1779 148.198 83.2262 148.153C83.2746 148.109 83.3313 148.074 83.393 148.051C83.4547 148.029 83.5203 148.019 83.586 148.021H83.613H83.64C84.2937 148.101 84.9537 148.113 85.61 148.058C86.2647 148.003 86.9091 147.861 87.526 147.634C88.144 147.404 88.7249 147.084 89.25 146.684C89.7786 146.292 90.2371 145.814 90.606 145.268L90.619 145.248C90.6555 145.195 90.7114 145.157 90.7749 145.143C90.8385 145.13 90.9049 145.141 90.9603 145.175C91.0158 145.209 91.056 145.263 91.0727 145.326C91.0894 145.389 91.0812 145.455 91.05 145.512L91.053 145.513Z" fill="#00043B"/>
<path d="M321.159 219.865C318.651 213.584 310.459 198.701 304.991 172.423C289.634 109.731 258.608 96.9641 248.813 94.9231C248.399 94.8351 248.028 94.7681 247.693 94.7171C249.584 92.8251 249.265 91.1411 249.207 90.9341C249.122 90.6281 247.072 85.8761 240.667 92.2851C234.262 98.6941 223.715 97.2131 219.915 96.3091C216.115 95.4051 213.36 95.4391 212.506 96.9951C212.337 97.3134 212.247 97.6672 212.241 98.0274C212.236 98.3875 212.316 98.7439 212.475 99.0671C212.259 99.0871 212.042 99.0991 211.83 99.1241C176.108 103.234 154.295 172.985 154.967 173.211L108.908 139.639C108.908 139.639 107.029 136.906 104.58 139.639C92.735 152.895 94.335 158.009 94.335 158.009C94.335 158.009 100.479 164.516 114.835 178.709C129.191 192.902 146.035 209.409 157.415 207.547C168.795 205.685 182.698 183.823 188.392 171.501C187.249 202.659 192.715 260.336 196.137 264.75C223.692 278.239 271.516 266.15 275.16 261.963C278.803 257.075 274.931 174.288 274.931 174.288C274.931 174.288 287.226 208.24 290.641 217.082C294.056 225.924 309.774 264.75 317.061 273.125C330.499 272.892 335.736 263.125 335.736 263.125C335.736 263.125 323.659 226.146 321.159 219.865Z" fill="#51576F"/>
<path d="M188.444 156.845V172.426L178.196 188.704C178.196 188.704 185.484 171.146 188.444 156.845Z" fill="#00043B"/>
<path d="M272.821 158.531L274.927 175.681C274.927 175.681 280.564 188.995 283.183 196.32C282.272 181.495 272.821 158.531 272.821 158.531Z" fill="#00043B"/>
<path d="M105.862 138.589C105.862 138.589 97.662 143.996 92.027 155.507C93.222 157.164 97.151 161.176 97.151 161.176C97.9136 152.987 100.929 145.169 105.862 138.589Z" fill="#00043B"/>
<path d="M314.439 269.516C314.439 269.516 317.855 275.678 319.222 276.202C320.589 276.726 334.48 268.295 336.074 263.411C336.137 262.671 335.999 261.928 335.674 261.26C329.742 266.349 322.251 269.262 314.439 269.516Z" fill="#00043B"/>
<path d="M61.321 158.896C61.0047 158.896 60.6905 158.845 60.39 158.747L9.58998 142.316C8.81181 142.056 8.16689 141.501 7.79426 140.77C7.42163 140.039 7.35114 139.191 7.59798 138.409L31.738 60.5947C31.8576 60.201 32.0548 59.8353 32.3179 59.5189C32.581 59.2026 32.9047 58.9421 33.27 58.7527C33.6235 58.5681 34.0103 58.4562 34.4078 58.4236C34.8052 58.391 35.2051 58.4383 35.584 58.5627L86.384 74.9937C87.1621 75.2539 87.8068 75.8093 88.1794 76.5402C88.552 77.2712 88.6226 78.1192 88.376 78.9017L77.812 112.959L76.857 112.659L87.421 78.6037C87.59 78.0727 87.5436 77.4965 87.2918 76.9993C87.04 76.5021 86.6031 76.1238 86.075 75.9457L35.275 59.5137C35.0221 59.4304 34.755 59.3988 34.4896 59.4206C34.2242 59.4424 33.9659 59.5172 33.73 59.6407C33.4828 59.7698 33.2638 59.9468 33.0857 60.1614C32.9077 60.376 32.7742 60.6239 32.693 60.8907L8.55298 138.704C8.3834 139.235 8.4294 139.811 8.68103 140.308C8.93267 140.805 9.36977 141.184 9.89798 141.362L60.698 157.794C60.9502 157.877 61.2166 157.908 61.4812 157.887C61.7459 157.865 62.0035 157.791 62.239 157.668C62.4871 157.539 62.707 157.362 62.8858 157.147C63.0645 156.932 63.1985 156.683 63.28 156.416L75.18 118.051L76.136 118.351L64.236 156.717C64.1159 157.111 63.918 157.477 63.654 157.794C63.39 158.11 63.0653 158.371 62.699 158.56C62.2731 158.78 61.8006 158.895 61.321 158.896Z" fill="#00043B"/>
<path d="M60.621 172.797C60.2572 172.797 59.8958 172.739 59.55 172.626L2.45497 154.157C1.56063 153.857 0.819647 153.218 0.391398 152.378C-0.0368508 151.538 -0.118154 150.563 0.164975 149.663L29.978 53.5629C30.114 53.1115 30.339 52.692 30.6397 52.3289C30.9404 51.9658 31.3108 51.6666 31.729 51.4489C32.1367 51.2357 32.583 51.1061 33.0415 51.068C33.5001 51.0299 33.9616 51.0839 34.399 51.2269L91.491 69.6959C92.3874 69.9928 93.1306 70.6311 93.5595 71.4724C93.9884 72.3137 94.0683 73.2901 93.782 74.19L81.282 114.48L80.327 114.18L92.827 73.8889C93.0355 73.2407 92.98 72.5363 92.6724 71.9288C92.3648 71.3212 91.8299 70.8595 91.184 70.6439L34.091 52.1789C33.7798 52.0767 33.4513 52.038 33.1249 52.0651C32.7986 52.0923 32.4809 52.1847 32.191 52.3369C31.8905 52.4941 31.6244 52.7097 31.4084 52.971C31.1924 53.2324 31.0307 53.5343 30.933 53.8589L1.12097 149.96C0.91593 150.609 0.97322 151.312 1.28056 151.918C1.58789 152.525 2.1208 152.987 2.76497 153.206L59.857 171.675C60.1682 171.777 60.4967 171.815 60.8231 171.788C61.1495 171.761 61.467 171.668 61.757 171.516C62.0579 171.359 62.3243 171.144 62.5407 170.882C62.7571 170.621 62.919 170.319 63.017 169.994L78.27 120.819L79.225 121.119L63.969 170.289C63.8324 170.741 63.6069 171.16 63.3057 171.524C63.0044 171.887 62.6336 172.186 62.215 172.404C61.7229 172.661 61.1762 172.796 60.621 172.797Z" fill="#00043B"/>
<path d="M67.858 97.7628C67.6539 97.7617 67.4514 97.7279 67.258 97.6628L31.1 85.9038C30.6022 85.7374 30.1898 85.3821 29.9516 84.9144C29.7135 84.4467 29.6687 83.9042 29.827 83.4038L34.604 68.0918C34.6815 67.8406 34.8084 67.6073 34.9772 67.4058C35.146 67.2042 35.3533 67.0383 35.587 66.9178C35.8144 66.7995 36.0631 66.7277 36.3185 66.7064C36.574 66.6851 36.8311 66.7148 37.075 66.7938L73.235 78.5578C73.7329 78.7239 74.1456 79.0792 74.384 79.5469C74.6223 80.0146 74.6672 80.5573 74.509 81.0578L69.731 96.3708C69.6538 96.622 69.5272 96.8553 69.3585 97.0569C69.1899 97.2586 68.9827 97.4244 68.749 97.5448C68.4737 97.6877 68.1682 97.7625 67.858 97.7628ZM36.479 67.6958C36.3285 67.6965 36.1804 67.7332 36.047 67.8028C35.9309 67.8626 35.828 67.945 35.7442 68.0451C35.6604 68.1452 35.5974 68.261 35.559 68.3858L30.782 83.6988C30.7012 83.9484 30.7218 84.2197 30.8393 84.4543C30.9568 84.6889 31.1617 84.8679 31.41 84.9528L67.569 96.7168C67.687 96.7559 67.8118 96.7707 67.9357 96.7602C68.0597 96.7497 68.1802 96.7142 68.29 96.6558C68.4058 96.596 68.5085 96.5136 68.592 96.4135C68.6755 96.3133 68.738 96.1975 68.776 96.0728L73.554 80.7598C73.6345 80.5104 73.6139 80.2394 73.4966 80.0051C73.3794 79.7708 73.1748 79.5918 72.927 79.5068L36.767 67.7418C36.6739 67.7118 36.5768 67.6962 36.479 67.6958Z" fill="#00043B"/>
<path d="M61.38 119.604L29.398 109.204C28.8991 109.039 28.4853 108.684 28.2459 108.216C28.0066 107.748 27.961 107.205 28.119 106.704L32.898 91.39C32.975 91.1387 33.1015 90.9053 33.2699 90.7035C33.4384 90.5017 33.6455 90.3356 33.879 90.215C34.1068 90.0955 34.3562 90.0227 34.6126 90.0007C34.8689 89.9788 35.1271 90.0081 35.372 90.087L71.532 101.858C72.0297 102.024 72.4422 102.38 72.6803 102.847C72.9185 103.315 72.9632 103.858 72.805 104.358L70.021 113.256L69.066 112.956L71.845 104.056C71.9246 103.807 71.9039 103.537 71.7871 103.304C71.6703 103.07 71.4667 102.891 71.22 102.806L35.064 91.032C34.9453 90.9939 34.8202 90.98 34.696 90.991C34.5719 91.002 34.4511 91.0377 34.341 91.096C34.2248 91.156 34.1217 91.2387 34.0379 91.3392C33.9541 91.4397 33.8912 91.5559 33.853 91.681L29.074 106.996C28.9976 107.245 29.0207 107.515 29.1385 107.748C29.2563 107.981 29.4597 108.159 29.706 108.245L61.688 118.651L61.38 119.604Z" fill="#00043B"/>
<path d="M23.26 118.357C22.8761 118.363 22.4991 118.254 22.1771 118.045C21.8551 117.836 21.6026 117.536 21.4517 117.183C21.3008 116.83 21.2583 116.44 21.3297 116.063C21.401 115.685 21.583 115.338 21.8524 115.064C22.1218 114.791 22.4665 114.604 22.8427 114.527C23.2188 114.45 23.6093 114.486 23.9646 114.632C24.3199 114.777 24.6238 115.025 24.8377 115.344C25.0517 115.663 25.1659 116.038 25.166 116.422C25.1692 116.931 24.9703 117.421 24.613 117.784C24.2557 118.146 23.7691 118.353 23.26 118.357ZM23.26 115.487C23.0739 115.481 22.8904 115.531 22.7328 115.63C22.5753 115.73 22.451 115.873 22.3757 116.044C22.3005 116.214 22.2778 116.403 22.3105 116.586C22.3433 116.769 22.4299 116.939 22.5595 117.072C22.689 117.206 22.8555 117.298 23.0376 117.336C23.2197 117.375 23.4092 117.358 23.5817 117.288C23.7543 117.219 23.9021 117.099 24.0061 116.944C24.1102 116.79 24.1659 116.608 24.166 116.422C24.1694 116.178 24.076 115.943 23.9062 115.767C23.7364 115.592 23.504 115.491 23.26 115.487Z" fill="#00043B"/>
<path d="M28.861 120.394C28.5749 120.394 28.2927 120.328 28.036 120.201C27.8067 120.089 27.6021 119.933 27.4343 119.74C27.2665 119.548 27.1389 119.324 27.059 119.082C26.8961 118.6 26.9287 118.073 27.1498 117.614C27.371 117.155 27.763 116.801 28.242 116.628C28.4768 116.546 28.7258 116.511 28.9743 116.526C29.2227 116.541 29.4657 116.605 29.689 116.715C29.9183 116.827 30.1229 116.984 30.2907 117.176C30.4585 117.368 30.5861 117.592 30.666 117.834C30.8294 118.317 30.7971 118.844 30.5759 119.303C30.3547 119.762 29.9623 120.116 29.483 120.288C29.2831 120.358 29.0728 120.394 28.861 120.394ZM28.861 117.523C28.7619 117.523 28.6636 117.54 28.57 117.572C28.3387 117.658 28.15 117.83 28.0444 118.053C27.9388 118.276 27.9246 118.531 28.005 118.764C28.0433 118.881 28.1044 118.988 28.1847 119.081C28.2651 119.173 28.3631 119.249 28.473 119.303C28.5774 119.355 28.6914 119.386 28.8079 119.393C28.9244 119.399 29.0411 119.383 29.151 119.343C29.3824 119.258 29.5713 119.086 29.6771 118.863C29.783 118.641 29.7973 118.385 29.717 118.152C29.6787 118.036 29.6174 117.928 29.5369 117.835C29.4563 117.743 29.3581 117.667 29.248 117.613C29.1282 117.554 28.9965 117.523 28.863 117.523H28.861Z" fill="#00043B"/>
<path d="M34.487 122.434C34.0102 122.432 33.5517 122.25 33.2024 121.926C32.8531 121.601 32.6386 121.157 32.6014 120.682C32.5643 120.207 32.7071 119.735 33.0017 119.36C33.2963 118.985 33.721 118.735 34.1917 118.658C34.6623 118.582 35.1444 118.685 35.5423 118.948C35.9402 119.211 36.2248 119.613 36.3397 120.076C36.4545 120.539 36.3912 121.028 36.1623 121.446C35.9334 121.864 35.5557 122.181 35.104 122.334C34.9052 122.401 34.6968 122.435 34.487 122.434ZM34.487 119.622C34.2811 119.621 34.0812 119.691 33.9199 119.819C33.7587 119.947 33.6456 120.126 33.5991 120.327C33.5527 120.527 33.5757 120.738 33.6643 120.923C33.7529 121.109 33.9019 121.26 34.087 121.35C34.21 121.41 34.3449 121.441 34.4818 121.442C34.6186 121.442 34.7538 121.412 34.8773 121.353C35.0008 121.294 35.1095 121.208 35.1952 121.102C35.2809 120.995 35.3414 120.87 35.3723 120.737C35.4031 120.604 35.4035 120.465 35.3734 120.332C35.3433 120.198 35.2835 120.073 35.1984 119.966C35.1134 119.859 35.0052 119.772 34.882 119.713C34.7589 119.653 34.6238 119.622 34.487 119.622Z" fill="#00043B"/>
<path d="M33.058 160.17C32.7153 160.17 32.3749 160.116 32.049 160.01C31.2059 159.727 30.5076 159.125 30.104 158.333C29.7004 157.54 29.6239 156.621 29.891 155.773C30.0204 155.347 30.2337 154.952 30.5183 154.61C30.8029 154.268 31.1529 153.986 31.548 153.781C31.9313 153.58 32.351 153.458 32.7823 153.422C33.2136 153.386 33.6477 153.437 34.059 153.572C34.9006 153.855 35.5981 154.457 36.0021 155.248C36.4061 156.038 36.4847 156.956 36.221 157.804C36.092 158.231 35.8786 158.629 35.5935 158.972C35.3084 159.316 34.9573 159.599 34.561 159.804C34.0968 160.045 33.5811 160.171 33.058 160.17ZM33.052 154.412C32.6884 154.413 32.3303 154.501 32.008 154.669C31.7306 154.813 31.485 155.011 31.2854 155.252C31.0858 155.492 30.9364 155.77 30.846 156.069C30.6564 156.666 30.7085 157.313 30.9911 157.872C31.2736 158.431 31.764 158.857 32.357 159.058C32.6428 159.151 32.9442 159.186 33.2437 159.161C33.5431 159.135 33.8345 159.051 34.101 158.912C34.3782 158.768 34.6239 158.57 34.8236 158.329C35.0233 158.089 35.173 157.811 35.264 157.512C35.4531 156.915 35.4006 156.267 35.1177 155.709C34.8349 155.15 34.3442 154.724 33.751 154.523C33.5252 154.45 33.2893 154.412 33.052 154.412Z" fill="#00043B"/>
<path d="M59.583 251.356C59.4504 251.356 59.3232 251.303 59.2295 251.21C59.1357 251.116 59.083 250.989 59.083 250.856V239.079C59.083 238.946 59.1357 238.819 59.2295 238.726C59.3232 238.632 59.4504 238.579 59.583 238.579C59.7156 238.579 59.8428 238.632 59.9366 238.726C60.0303 238.819 60.083 238.946 60.083 239.079V250.856C60.083 250.989 60.0303 251.116 59.9366 251.21C59.8428 251.303 59.7156 251.356 59.583 251.356Z" fill="#00043B"/>
<path d="M59.583 270.356C59.4504 270.356 59.3232 270.303 59.2295 270.21C59.1357 270.116 59.083 269.989 59.083 269.856V258.079C59.083 257.946 59.1357 257.819 59.2295 257.726C59.3232 257.632 59.4504 257.579 59.583 257.579C59.7156 257.579 59.8428 257.632 59.9366 257.726C60.0303 257.819 60.083 257.946 60.083 258.079V269.856C60.083 269.989 60.0303 270.116 59.9366 270.21C59.8428 270.303 59.7156 270.356 59.583 270.356Z" fill="#00043B"/>
<path d="M74.977 254.778H63.2C63.0674 254.778 62.9402 254.726 62.8465 254.632C62.7527 254.538 62.7 254.411 62.7 254.278C62.7 254.146 62.7527 254.019 62.8465 253.925C62.9402 253.831 63.0674 253.778 63.2 253.778H74.977C75.1096 253.778 75.2368 253.831 75.3306 253.925C75.4243 254.019 75.477 254.146 75.477 254.278C75.477 254.411 75.4243 254.538 75.3306 254.632C75.2368 254.726 75.1096 254.778 74.977 254.778Z" fill="#00043B"/>
<path d="M56.384 254.778H44.607C44.4744 254.778 44.3472 254.726 44.2534 254.632C44.1597 254.538 44.107 254.411 44.107 254.278C44.107 254.146 44.1597 254.019 44.2534 253.925C44.3472 253.831 44.4744 253.778 44.607 253.778H56.384C56.5166 253.778 56.6438 253.831 56.7375 253.925C56.8313 254.019 56.884 254.146 56.884 254.278C56.884 254.411 56.8313 254.538 56.7375 254.632C56.6438 254.726 56.5166 254.778 56.384 254.778Z" fill="#00043B"/>
<path d="M375.109 410.897C374.976 410.897 374.849 410.844 374.755 410.751C374.662 410.657 374.609 410.53 374.609 410.397V398.621C374.609 398.488 374.662 398.361 374.755 398.268C374.849 398.174 374.976 398.121 375.109 398.121C375.242 398.121 375.369 398.174 375.463 398.268C375.556 398.361 375.609 398.488 375.609 398.621V410.397C375.609 410.53 375.556 410.657 375.463 410.751C375.369 410.844 375.242 410.897 375.109 410.897Z" fill="#00043B"/>
<path d="M375.109 429.898C374.976 429.898 374.849 429.845 374.755 429.752C374.662 429.658 374.609 429.531 374.609 429.398V417.621C374.609 417.488 374.662 417.361 374.755 417.268C374.849 417.174 374.976 417.121 375.109 417.121C375.242 417.121 375.369 417.174 375.463 417.268C375.556 417.361 375.609 417.488 375.609 417.621V429.398C375.609 429.464 375.596 429.529 375.571 429.589C375.546 429.65 375.509 429.705 375.463 429.752C375.416 429.798 375.361 429.835 375.3 429.86C375.24 429.885 375.175 429.898 375.109 429.898Z" fill="#00043B"/>
<path d="M390.504 414.32H378.727C378.594 414.32 378.467 414.268 378.373 414.174C378.28 414.08 378.227 413.953 378.227 413.82C378.227 413.688 378.28 413.561 378.373 413.467C378.467 413.373 378.594 413.32 378.727 413.32H390.504C390.637 413.32 390.764 413.373 390.858 413.467C390.951 413.561 391.004 413.688 391.004 413.82C391.004 413.953 390.951 414.08 390.858 414.174C390.764 414.268 390.637 414.32 390.504 414.32Z" fill="#00043B"/>
<path d="M371.911 414.32H360.134C360.001 414.32 359.874 414.268 359.78 414.174C359.687 414.08 359.634 413.953 359.634 413.82C359.634 413.688 359.687 413.561 359.78 413.467C359.874 413.373 360.001 413.32 360.134 413.32H371.911C372.044 413.32 372.171 413.373 372.265 413.467C372.358 413.561 372.411 413.688 372.411 413.82C372.411 413.953 372.358 414.08 372.265 414.174C372.171 414.268 372.044 414.32 371.911 414.32Z" fill="#00043B"/>
</svg>
